:FULLY-SPECIFIED
:FORCE-ALL-JOINTS-BE-3DOF
:DEGREES
2548
root 4.12868 13.7036 -23.6755 -25.0116 84.721 -27.7247
lfemur -38.2576 12.567 -12.4456
ltibia 89.5033 -0 0
lfoot -28.0994 25.9641 -0.0136344
ltoes -38.8204 0 0
rfemur -57.0683 -24.5145 10.3771
rtibia 65.1175 -0 0
rfoot 0.575987 6.2131 0.311991
rtoes 8.24879 -0 0
lowerback 16.8306 -0.323699 -3.69872
upperback -1.07565 -0.815484 3.06527
thorax -10.5807 -0.0539363 5.68176
lowerneck 5.11205 -14.6191 -15.1716
upperneck 0.187189 -20.4804 14.994
head 2.35605 -10.3868 6.21172
lclavicle 0 0 0
lhumerus -51.8226 -46.1222 115.045
lradius 106.88 -0 0
lwrist 81.3321 0 0
lhand 8.66455 40.5379 -0.0281714
lfingers 0 0 0
lthumb 33.8569 67.3353 -0.0325532
rclavicle 0 0 0
rhumerus 10.5104 -11.7158 -60.3166
rradius 77.2104 -0 0
rwrist 27.3902 0 0
rhand -37.4996 -47.9898 0.199347
rfingers 0 0 0
rthumb -10.5547 -77.6408 0.189031
2549
root 4.09668 13.7125 -23.7918 -17.6466 82.8972 -20.5275
lfemur -38.427 12.7214 -12.7103
ltibia 89.3417 -0 0
lfoot -28.1809 26.0938 -0.0168045
ltoes -38.693 0 0
rfemur -57.1503 -24.3313 10.7342
rtibia 65.9643 -0 0
rfoot 0.251841 5.47926 0.384742
rtoes 8.27242 -0 0
lowerback 16.8936 -0.276529 -3.77307
upperback -1.06227 -0.773432 3.03793
thorax -10.6077 -0.0304139 5.68385
lowerneck 5.10692 -14.6233 -15.178
upperneck 0.189164 -20.4931 15.106
head 2.37295 -10.394 6.2431
lclavicle 0 0 0
lhumerus -51.1402 -46.635 114.997
lradius 106.568 -0 0
lwrist 81.0626 0 0
lhand 8.50583 40.6754 -0.0347221
lfingers 0 0 0
lthumb 33.7056 67.502 -0.040123
rclavicle 0 0 0
rhumerus 11.5097 -10.3023 -59.946
rradius 77.6442 -0 0
rwrist 26.9556 0 0
rhand -37.0655 -47.6367 0.24576
rfingers 0 0 0
rthumb -10.1356 -77.2938 0.233038
2550
root 4.06336 13.7218 -23.9144 -13.0603 80.8752 -16.1207
lfemur -38.6088 12.8855 -12.9939
ltibia 89.1691 -0 0
lfoot -28.2679 26.2323 -0.019988
ltoes -38.5569 0 0
rfemur -57.2364 -24.1351 11.115
rtibia 66.869 -0 0
rfoot -0.0955097 4.69471 0.45788
rtoes 8.29766 -0 0
lowerback 16.9609 -0.226037 -3.85246
upperback -1.04798 -0.728493 3.00872
thorax -10.6365 -0.00527922 5.68607
lowerneck 5.10145 -14.6278 -15.1849
upperneck 0.191245 -20.5066 15.2256
head 2.39101 -10.4017 6.27663
lclavicle 0 0 0
lhumerus -50.4031 -47.1826 114.935
lradius 106.235 -0 0
lwrist 80.7746 0 0
lhand 8.33623 40.8223 -0.0413006
lfingers 0 0 0
lthumb 33.5441 67.6801 -0.0477251
rclavicle 0 0 0
rhumerus 12.5831 -8.7993 -59.5242
rradius 78.1078 -0 0
rwrist 26.4912 0 0
rhand -36.6013 -47.2589 0.292391
rfingers 0 0 0
rthumb -9.68738 -76.9227 0.277252
2551
root 4.02885 13.7313 -24.0428 -9.97205 78.6958 -13.2233
lfemur -38.8025 13.0583 -13.295
ltibia 88.9864 -0 0
lfoot -28.3601 26.3791 -0.0231293
ltoes -38.4127 0 0
rfemur -57.3258 -23.9267 11.5171
rtibia 67.8271 -0 0
rfoot -0.464363 3.86351 0.53013
rtoes 8.32439 -0 0
lowerback 17.0321 -0.172472 -3.93646
upperback -1.03289 -0.680901 2.97781
thorax -10.667 0.021336 5.68841
lowerneck 5.09566 -14.6325 -15.1921
upperneck 0.193416 -20.5209 15.3523
head 2.41012 -10.4098 6.31212
lclavicle 0 0 0
lhumerus -49.6132 -47.7617 114.858
lradius 105.882 -0 0
lwrist 80.4696 0 0
lhand 8.15662 40.9778 -0.0477923
lfingers 0 0 0
lthumb 33.3729 67.8688 -0.0552269
rclavicle 0 0 0
rhumerus 13.7275 -7.21662 -59.0485
rradius 78.5987 -0 0
rwrist 25.9995 0 0
rhand -36.1095 -46.8586 0.33843
rfingers 0 0 0
rthumb -9.21254 -76.5294 0.320902
2552
root 3.99329 13.7412 -24.1763 -7.76203 76.384 -11.2144
lfemur -39.007 13.2388 -13.6122
ltibia 88.7944 -0 0
lfoot -28.4569 26.5333 -0.0261754
ltoes -38.2613 0 0
rfemur -57.4179 -23.7072 11.9386
rtibia 68.8336 -0 0
rfoot -0.852983 2.98972 0.600263
rtoes 8.35248 -0 0
lowerback 17.1068 -0.116083 -4.02464
upperback -1.01705 -0.63089 2.94535
thorax -10.6991 0.0493002 5.69085
lowerneck 5.08957 -14.6374 -15.1998
upperneck 0.19566 -20.5359 15.4855
head 2.43019 -10.4184 6.34942
lclavicle 0 0 0
lhumerus -48.7725 -48.3692 114.762
lradius 105.512 -0 0
lwrist 80.1493 0 0
lhand 7.9679 41.1413 -0.0540873
lfingers 0 0 0
lthumb 33.1931 68.067 -0.0625016
rclavicle 0 0 0
rhumerus 14.9402 -5.56434 -58.5161
rradius 79.1145 -0 0
rwrist 25.4829 0 0
rhand -35.5924 -46.4376 0.383094
rfingers 0 0 0
rthumb -8.71333 -76.1159 0.363247
2553
root 3.9568 13.7512 -24.3144 -6.10311 73.9579 -9.76647
lfemur -39.2217 13.426 -13.9441
ltibia 88.594 -0 0
lfoot -28.558 26.6942 -0.029076
ltoes -38.1033 0 0
rfemur -57.5119 -23.4775 12.3772
rtibia 69.8839 -0 0
rfoot -1.2596 2.07746 0.667117
rtoes 8.38179 -0 0
lowerback 17.1847 -0.0571194 -4.11657
upperback -1.00056 -0.578696 2.91149
thorax -10.7326 0.0784817 5.69338
lowerneck 5.08322 -14.6426 -15.2077
upperneck 0.197963 -20.5516 15.6244
head 2.45113 -10.4274 6.38833
lclavicle 0 0 0
lhumerus -47.8827 -49.0021 114.647
lradius 105.125 -0 0
lwrist 79.815 0 0
lhand 7.77095 41.3118 -0.060082
lfingers 0 0 0
lthumb 33.0054 68.2738 -0.0694292
rclavicle 0 0 0
rhumerus 16.219 -3.85264 -57.9247
rradius 79.6527 -0 0
rwrist 24.9438 0 0
rhand -35.0525 -45.9978 0.425646
rfingers 0 0 0
rthumb -8.19211 -75.6839 0.40359
